<?xml version="1.0" encoding="UTF-8" standalone="no"?>
<svg
   xmlns:dc="http://purl.org/dc/elements/1.1/"
   xmlns:cc="http://creativecommons.org/ns#"
   xmlns:rdf="http://www.w3.org/1999/02/22-rdf-syntax-ns#"
   xmlns:svg="http://www.w3.org/2000/svg"
   xmlns="http://www.w3.org/2000/svg"
   xmlns:sodipodi="http://sodipodi.sourceforge.net/DTD/sodipodi-0.dtd"
   xmlns:inkscape="http://www.inkscape.org/namespaces/inkscape"
   viewBox="0 0 1440 350"
   preserveAspectRatio="none"
   version="1.1"
   id="svg4"
   sodipodi:docname="wave.svg"
   inkscape:version="1.0.2 (e86c870879, 2021-01-15)">
  <metadata
     id="metadata10">
    <rdf:RDF>
      <cc:Work
         rdf:about="">
        <dc:format>image/svg+xml</dc:format>
        <dc:type
           rdf:resource="http://purl.org/dc/dcmitype/StillImage" />
      </cc:Work>
    </rdf:RDF>
  </metadata>
  <defs
     id="defs8" />
  <sodipodi:namedview
     pagecolor="#ffffff"
     bordercolor="#666666"
     borderopacity="1"
     objecttolerance="10"
     gridtolerance="10"
     guidetolerance="10"
     inkscape:pageopacity="0"
     inkscape:pageshadow="2"
     inkscape:window-width="2560"
     inkscape:window-height="1393"
     id="namedview6"
     showgrid="false"
     inkscape:zoom="1.6416667"
     inkscape:cx="510.21061"
     inkscape:cy="223.73096"
     inkscape:window-x="0"
     inkscape:window-y="0"
     inkscape:window-maximized="1"
     inkscape:current-layer="svg4" />
  <path
     d="m 0,-45.416325 c 0,0 0,200.000005 0,200.000005 25.723307,-35.8921 51.446614,-71.784202 88,-73.000002 36.55339,-1.21581 83.93685,32.244692 124,55.000002 40.06315,22.7553 72.80598,34.80541 98,31 25.19402,-3.80542 42.83921,-23.46635 82,-10 39.16079,13.46634 99.83717,60.05998 138,67 38.16283,6.94001 53.81209,-25.77359 80,-56 26.18791,-30.22642 62.91446,-57.96565 102,-57 39.08554,0.96564 80.53006,30.63617 119,45 38.46994,14.36382 73.9653,13.42095 111,0 37.0347,-13.42096 75.6087,-39.31998 105,-34 29.3913,5.31997 49.5997,41.85896 83,65 33.4003,23.14103 79.9924,32.88412 116,11 36.0076,-21.88413 61.4307,-75.39547 92,-88 30.5693,-12.604542 66.2846,15.69773 102,44 0,0 0,-200.000005 0,-200.000005 z"
     stroke="none"
     stroke-width="0"
     fill="#ffffffff"
     id="path2" />
</svg>
