<svg viewBox="0 0 1440 280" preserveAspectRatio="none" xmlns="http://www.w3.org/2000/svg"><path d="M 0,400 C 0,400 0,200 0,200 C 25.723307112729877,235.89209949376115 51.446614225459754,271.7841989875223 88,273 C 124.55338577454025,274.2158010124777 171.9368502108908,240.75530354367183 212,218 C 252.0631497891092,195.24469645632817 284.80598493097693,183.19458683779035 310,187 C 335.19401506902307,190.80541316220965 352.8392100652016,210.4663491051669 392,197 C 431.1607899347984,183.5336508948331 491.8371748082169,136.9400167415421 530,130 C 568.1628251917831,123.05998325845789 583.8120907019305,155.77358392866464 610,186 C 636.1879092980695,216.22641607133536 672.9144623840606,243.9656475437994 712,243 C 751.0855376159394,242.0343524562006 792.5300597618275,212.36382589613785 831,198 C 869.4699402381725,183.63617410386215 904.9652985686295,184.5790488716492 942,198 C 979.0347014313705,211.4209511283508 1017.6087459636544,237.31997861726526 1047,232 C 1076.3912540363456,226.68002138273474 1096.5997175767527,190.14103665928974 1130,167 C 1163.4002824232473,143.85896334071026 1209.9923837293359,134.11587474557584 1246,156 C 1282.0076162706641,177.88412525442416 1307.430747505904,231.3954643584069 1338,244 C 1368.569252494096,256.6045356415931 1404.284626247048,228.30226782079654 1440,200 C 1440,200 1440,400 1440,400 Z" stroke="none" stroke-width="0" fill="#ffffffff"></path></svg>